# xmcd CD database file
#
# Track frame offsets:
#	150
#	13431
#	24122
#	34646
#	53346
#	62893
#	78257
#	90620
#	105265
#	117238
#	130040
#	142148
#	152710
#	164863
#	175657
#	185687
#	202006
#	214067
#	227497
#	244755
#	260214
#	276883
#	288845
#	299890
#	317397
#	328688
#	342570
#	350863
#
# Disc length: 4792 seconds
#
# Revision: 0
# Processed by: cddbd v1.5.2PL0 Copyright (c) Steve Scherf et al.
# Submitted via: jetAudio 7
#
DISCID=ab12b61c
DTITLE=Неизвестный артист - Неизвестный альбом
DYEAR=1900
DGENRE=Неизвестный жанр
TTITLE0=Трек 1
TTITLE1=Трек 2
TTITLE2=Трек 3
TTITLE3=Трек 4
TTITLE4=Трек 5
TTITLE5=Трек 6
TTITLE6=Трек 7
TTITLE7=Трек 8
TTITLE8=Трек 9
TTITLE9=Трек 10
TTITLE10=Трек 11
TTITLE11=Трек 12
TTITLE12=Трек 13
TTITLE13=Трек 14
TTITLE14=Трек 15
TTITLE15=Трек 16
TTITLE16=Трек 17
TTITLE17=Трек 18
TTITLE18=Трек 19
TTITLE19=Трек 20
TTITLE20=Трек 21
TTITLE21=Трек 22
TTITLE22=Трек 23
TTITLE23=Трек 24
TTITLE24=Трек 25
TTITLE25=Трек 26
TTITLE26=Трек 27
TTITLE27=Трек 28
EXTD=
EXTT0=
EXTT1=
EXTT2=
EXTT3=
EXTT4=
EXTT5=
EXTT6=
EXTT7=
EXTT8=
EXTT9=
EXTT10=
EXTT11=
EXTT12=
EXTT13=
EXTT14=
EXTT15=
EXTT16=
EXTT17=
EXTT18=
EXTT19=
EXTT20=
EXTT21=
EXTT22=
EXTT23=
EXTT24=
EXTT25=
EXTT26=
EXTT27=
PLAYORDER=
